<svg width="82" height="80" viewBox="0 0 82 80" fill="none" xmlns="http://www.w3.org/2000/svg">
<path d="M62.1652 67.5189H1.94023C1.56246 67.5189 1.25586 67.2129 1.25586 66.8345V25.1629C1.25586 24.7851 1.56246 24.4785 1.94023 24.4785H62.1652C62.5437 24.4785 62.8496 24.7851 62.8496 25.1629V66.8352C62.8496 67.2129 62.5437 67.5189 62.1652 67.5189ZM2.62461 66.1501H61.4809V25.8473H2.62461V66.1501Z" fill="black"/>
<path d="M53.1686 62.1431H10.9289C10.5512 62.1431 10.2446 61.8372 10.2446 61.4587C10.2446 59.8416 8.92851 58.5255 7.31133 58.5255C6.93355 58.5255 6.62695 58.2196 6.62695 57.8411V34.1535C6.62695 33.7758 6.93355 33.4692 7.31133 33.4692C8.92851 33.4692 10.2446 32.1538 10.2446 30.5359C10.2446 30.1582 10.5512 29.8516 10.9289 29.8516H53.1686C53.547 29.8516 53.8529 30.1582 53.8529 30.5359C53.8529 32.1531 55.169 33.4692 56.7862 33.4692C57.1646 33.4692 57.4705 33.7758 57.4705 34.1535V57.8405C57.4705 58.2189 57.1646 58.5248 56.7862 58.5248C55.169 58.5248 53.8529 59.8409 53.8529 61.4581C53.8529 61.8372 53.547 62.1431 53.1686 62.1431ZM11.5586 60.7744H52.5383C52.8319 58.9491 54.2766 57.5044 56.1018 57.2108V34.7839C54.2766 34.4909 52.8319 33.0462 52.5383 31.221H11.5586C11.2656 33.0462 9.82025 34.4909 7.99502 34.7839V57.2108C9.82093 57.5037 11.2656 58.9491 11.5586 60.7744Z" fill="black"/>
<path d="M22.4291 44.8852C22.3202 44.8852 22.2107 44.8592 22.1108 44.8065L19.4486 43.407L16.7864 44.8065C16.5551 44.9276 16.2765 44.9071 16.0657 44.7545C15.855 44.6019 15.7496 44.3418 15.7934 44.0852L16.3018 41.1205L14.1481 39.0208C13.962 38.8388 13.8942 38.5671 13.975 38.3193C14.0557 38.0716 14.2699 37.8909 14.5279 37.8533L17.5043 37.4207L18.8354 34.7236C19.066 34.2562 19.8325 34.2562 20.0632 34.7236L21.3943 37.4207L24.3706 37.8533C24.6286 37.8909 24.8428 38.0716 24.9236 38.3193C25.0044 38.5671 24.9373 38.8388 24.7505 39.0208L22.5967 41.1205L23.1052 44.0852C23.149 44.3418 23.0436 44.6012 22.8328 44.7545C22.7117 44.8414 22.5707 44.8852 22.4291 44.8852ZM19.4479 41.9499C19.5574 41.9499 19.6669 41.9759 19.7662 42.0286L21.5195 42.9505L21.1849 40.998C21.1472 40.7762 21.2205 40.5497 21.382 40.3923L22.8007 39.0092L20.8406 38.7245C20.6175 38.6923 20.4252 38.552 20.3253 38.3501L19.4486 36.5742L18.5719 38.3501C18.472 38.552 18.2797 38.6923 18.0566 38.7245L16.0965 39.0092L17.5152 40.3923C17.6761 40.5497 17.75 40.7762 17.7123 40.998L17.377 42.9505L19.1304 42.0286C19.2296 41.9759 19.3391 41.9499 19.4479 41.9499Z" fill="black"/>
<path d="M29.0717 44.8852C28.93 44.8852 28.7883 44.8414 28.6693 44.7545C28.4585 44.6012 28.3531 44.3418 28.3969 44.0852L28.9054 41.1205L26.7516 39.0208C26.5655 38.8388 26.4977 38.5671 26.5785 38.3193C26.6592 38.0716 26.8735 37.8909 27.1315 37.8533L30.1078 37.4207L31.4389 34.7236C31.6696 34.2562 32.4361 34.2562 32.6667 34.7236L33.9978 37.4207L36.9748 37.8533C37.2328 37.8909 37.4464 38.0716 37.5278 38.3193C37.6079 38.5671 37.5415 38.8394 37.3547 39.0208L35.2002 41.1205L35.7087 44.0852C35.7525 44.3418 35.6471 44.6012 35.437 44.7545C35.2263 44.9085 34.9457 44.9276 34.7164 44.8065L32.0521 43.407L29.3899 44.8065C29.2893 44.8592 29.1805 44.8852 29.0717 44.8852ZM28.7001 39.0092L30.1188 40.3923C30.2796 40.549 30.3535 40.7762 30.3159 40.998L29.9812 42.9505L31.7346 42.0286C31.9337 41.9239 32.1726 41.9239 32.3717 42.0286L34.1251 42.9505L33.7904 40.998C33.7521 40.7762 33.826 40.5497 33.9868 40.3923L35.4056 39.0092L33.4455 38.7245C33.2224 38.6923 33.0301 38.552 32.9302 38.3501L32.0521 36.5735L31.1754 38.3494C31.0755 38.5513 30.8832 38.6916 30.6601 38.7238L28.7001 39.0092Z" fill="black"/>
<path d="M47.6303 44.8852C47.5215 44.8852 47.412 44.8592 47.3121 44.8065L44.6485 43.407L41.9856 44.8065C41.757 44.9276 41.4757 44.9078 41.265 44.7545C41.0542 44.6012 40.9488 44.3418 40.9933 44.0852L41.5017 41.1205L39.348 39.0208C39.1619 38.8388 39.0948 38.5671 39.1749 38.3193C39.2556 38.0716 39.4698 37.8909 39.7278 37.8533L42.7042 37.4207L44.0353 34.7236C44.2653 34.2562 45.0324 34.2562 45.2624 34.7236L46.5942 37.4207L49.5705 37.8533C49.8285 37.8909 50.0421 38.0716 50.1235 38.3193C50.2036 38.5671 50.1372 38.8388 49.9504 39.0208L47.7966 41.1205L48.3051 44.0852C48.3489 44.3418 48.2435 44.6012 48.0334 44.7545C47.9137 44.8414 47.772 44.8852 47.6303 44.8852ZM44.6485 41.9499C44.758 41.9499 44.8668 41.9759 44.9667 42.0286L46.7208 42.9505L46.3861 40.9973C46.3478 40.7755 46.4217 40.549 46.5825 40.3916L48.0013 39.0085L46.0412 38.7238C45.8181 38.6916 45.6258 38.5513 45.5259 38.3494L44.6485 36.5728L43.7718 38.3494C43.6719 38.5513 43.4796 38.6916 43.2565 38.7238L41.2964 39.0085L42.7151 40.3916C42.876 40.5483 42.9499 40.7755 42.9116 40.9973L42.5769 42.9498L44.331 42.028C44.4302 41.9759 44.539 41.9499 44.6485 41.9499Z" fill="black"/>
<path d="M49.4728 50.8883H14.6258C14.248 50.8883 13.9414 50.5824 13.9414 50.2039C13.9414 49.8254 14.248 49.5195 14.6258 49.5195H49.4728C49.8512 49.5195 50.1572 49.8254 50.1572 50.2039C50.1572 50.5824 49.8512 50.8883 49.4728 50.8883Z" fill="black"/>
<path d="M49.4769 56.3629H35.8455C35.467 56.3629 35.1611 56.057 35.1611 55.6785C35.1611 55.3001 35.467 54.9941 35.8455 54.9941H49.4769C49.8553 54.9941 50.1613 55.3001 50.1613 55.6785C50.1613 56.057 49.8553 56.3629 49.4769 56.3629Z" fill="black"/>
</svg>
