<svg width="80" height="80" viewBox="0 0 80 80" fill="none" xmlns="http://www.w3.org/2000/svg">
<path d="M38.0955 24.2438C38.0144 24.2438 37.9333 24.2266 37.8555 24.1888C36.9244 23.7422 36.0194 23.7422 35.0889 24.1888C34.8117 24.3222 34.4806 24.2049 34.3478 23.9283C34.215 23.6516 34.3317 23.32 34.6083 23.1872C35.8456 22.5939 37.0994 22.5939 38.3366 23.1872C38.6133 23.32 38.73 23.6516 38.5972 23.9283C38.5011 24.1277 38.3022 24.2438 38.0955 24.2438Z" fill="black"/>
<path d="M41.0227 24.2433C40.8155 24.2433 40.6172 24.1272 40.5216 23.9283C40.3888 23.6516 40.5055 23.32 40.7822 23.1872C42.0194 22.5939 43.2733 22.5939 44.5105 23.1872C44.7871 23.32 44.9038 23.6516 44.771 23.9283C44.6382 24.2044 44.3082 24.3216 44.0299 24.1888C43.0988 23.7416 42.1938 23.7422 41.2633 24.1888C41.185 24.2255 41.1027 24.2433 41.0227 24.2433Z" fill="black"/>
<path d="M39.694 31.4848C38.8446 31.4848 37.9962 31.0837 37.1729 30.2815C36.9529 30.0676 36.9485 29.7154 37.1624 29.496C37.3762 29.2765 37.7279 29.2715 37.9479 29.4854C39.1529 30.6599 40.2334 30.6593 41.4479 29.4843C41.6684 29.271 42.0201 29.2771 42.2334 29.4971C42.4467 29.7176 42.4406 30.0693 42.2206 30.2826C41.3934 31.0843 40.5429 31.4848 39.694 31.4848Z" fill="black"/>
<path d="M50.3003 37.1791L49.8297 37.093V28.4503V19.6321C49.8297 14.0455 45.2848 9.5 39.6976 9.5C34.1105 9.5 29.5655 14.0455 29.5655 19.6321V28.4509V37.0936L29.095 37.1797C26.8506 37.5897 25.2217 39.5436 25.2217 41.8246V57.6928C25.2217 58.6895 26.0322 59.5 27.0289 59.5H52.3669C53.3636 59.5 54.1741 58.6895 54.1741 57.6928V41.8246C54.1741 39.543 52.5447 37.5897 50.3003 37.1791ZM48.8786 41.2363H47.1231C47.0109 41.2363 46.902 41.2708 46.8092 41.3335C45.0498 42.5396 43.8887 43.2596 42.5443 44.0935C42.1193 44.3574 41.6759 44.6324 41.1887 44.9385L45.3203 37.2219C45.637 37.3875 45.9764 37.518 46.3431 37.5852L47.612 37.8169L48.8786 41.2363ZM39.6976 45.369L34.976 36.5508C35.5532 35.9619 35.9221 35.1842 35.9932 34.3247C36.6521 34.7564 37.3638 35.1197 38.1232 35.3942C38.631 35.5775 39.1643 35.6692 39.6976 35.6692C40.231 35.6692 40.7643 35.5775 41.2721 35.3942C42.0298 35.1203 42.7393 34.7586 43.4026 34.3253C43.4737 35.1847 43.8426 35.9614 44.4192 36.5503L39.6976 45.369ZM31.7838 37.8169L33.0527 37.5852C33.4199 37.518 33.7588 37.3875 34.0755 37.2219L38.2065 44.9379C37.7199 44.6324 37.2765 44.3574 36.8521 44.0935C35.5077 43.2596 34.346 42.5391 32.5866 41.333C32.4938 41.2702 32.3844 41.2358 32.2727 41.2358H30.5166L31.7838 37.8169ZM44.2354 32.2386C43.2815 33.1825 42.1576 33.8925 40.8943 34.3486C40.1226 34.6275 39.2721 34.6269 38.5004 34.3486C35.1321 33.1314 32.7627 30.0387 32.4638 26.4693L32.0766 21.841C37.161 21.1132 40.4043 19.976 42.4259 18.2049C43.8515 19.8143 45.2065 20.8732 47.302 22.026L46.9303 26.4693C46.842 27.5237 46.5753 28.5459 46.1381 29.5076C45.9081 30.0131 45.6298 30.5025 45.3098 30.9609C44.9915 31.4186 44.6298 31.8486 44.2354 32.2386ZM30.6766 28.4503V19.6321C30.6766 14.6577 34.7232 10.6111 39.6976 10.6111C44.672 10.6111 48.7186 14.6577 48.7186 19.6321V28.4509V36.8908L46.5426 36.493C45.3515 36.2753 44.487 35.238 44.487 34.0275V33.5003C44.6654 33.3464 44.8476 33.197 45.0165 33.0297C45.4592 32.592 45.8642 32.1103 46.222 31.5975C46.5809 31.0836 46.8925 30.5353 47.1503 29.9687C47.6409 28.8909 47.9392 27.7454 48.0381 26.5637L48.4403 21.7588C48.4586 21.5382 48.3448 21.3276 48.1498 21.2226C45.8131 19.971 44.4376 18.8777 42.8931 17.046C42.792 16.9266 42.6459 16.8549 42.4893 16.8494C42.3332 16.8466 42.182 16.9033 42.072 17.0144C40.2154 18.9005 36.9254 20.0721 31.4061 20.8138C31.1127 20.8532 30.9016 21.1154 30.9266 21.411L31.3577 26.5631C31.5861 29.2948 32.8983 31.7764 34.9093 33.5108V34.0275C34.9093 35.2386 34.0449 36.2753 32.8538 36.493L30.6777 36.8908V28.4503H30.6766ZM26.3322 57.6922V41.8246C26.3322 40.0797 27.5778 38.5863 29.2944 38.2719L30.5127 38.0491L29.1972 41.5985C29.1339 41.7691 29.1583 41.9596 29.2622 42.1091C29.3661 42.2585 29.5366 42.3474 29.7183 42.3474H32.1005C33.8021 43.5096 34.9466 44.2196 36.2666 45.0385C37.0871 45.5474 37.9888 46.1074 39.1276 46.8401V58.3883H31.8888V49.0046H30.7777V58.3883H27.0289C26.6444 58.3883 26.3322 58.0761 26.3322 57.6922ZM53.063 57.6922C53.063 58.0756 52.7503 58.3883 52.3669 58.3883H48.6181V49.0046H47.507V58.3883H40.2387V46.8585C41.3926 46.1163 42.302 45.5507 43.1304 45.0379C44.4498 44.2191 45.5942 43.5096 47.2953 42.3474H49.6775C49.8592 42.3474 50.0297 42.2585 50.1336 42.1091C50.2375 41.9596 50.2614 41.7691 50.1981 41.5985L48.8825 38.0491L50.1003 38.2719C51.8169 38.5858 53.0625 40.0797 53.0625 41.8246L53.063 57.6922Z" fill="black"/>
</svg>
