<svg width="80" height="80" viewBox="0 0 80 80" fill="none" xmlns="http://www.w3.org/2000/svg">
<path d="M17.4775 37.7169C17.4775 37.7511 17.4775 37.7682 17.4775 37.7682C17.4775 37.7682 17.4775 37.7853 17.4775 37.8196C17.4775 37.8196 17.4775 37.8281 17.4775 37.8452C17.4775 37.8623 17.4775 37.8709 17.4775 37.8709C17.4775 37.9051 17.4775 37.9222 17.4775 37.9222C17.4775 37.9564 17.4775 37.9821 17.4775 37.9992C17.4775 38.0163 17.4775 38.0249 17.4775 38.0249C17.4775 38.0249 17.4775 38.0334 17.4775 38.0506C17.4775 38.0677 17.4775 38.0762 17.4775 38.0762C17.4775 38.1104 17.4775 38.1276 17.4775 38.1276C17.4775 38.1276 17.4775 38.1447 17.4775 38.1789C17.4775 38.1789 17.4775 38.1874 17.4775 38.2046C17.4775 38.2217 17.4775 38.2302 17.4775 38.2302C17.4775 38.2302 17.4775 38.2388 17.4775 38.2559C17.4775 38.273 17.4775 38.2816 17.4775 38.2816C17.5119 38.3158 17.5291 38.3329 17.5291 38.3329V38.3842C17.5291 38.3842 17.5291 38.4013 17.5291 38.4356C17.5291 38.4356 17.5463 38.4356 17.5807 38.4356C17.5807 38.4356 17.5807 38.4527 17.5807 38.4869C17.6151 38.4869 17.6322 38.4954 17.6322 38.5126C17.6322 38.5297 17.6322 38.5382 17.6322 38.5382L39.6007 60.406C39.6007 60.406 39.6093 60.406 39.6265 60.406C39.6437 60.406 39.6522 60.4231 39.6522 60.4573H39.7038C39.7038 60.4573 39.7124 60.4659 39.7296 60.483C39.7468 60.5001 39.7554 60.5087 39.7554 60.5087C39.7898 60.5087 39.8155 60.5172 39.8327 60.5343C39.8499 60.5514 39.8585 60.56 39.8585 60.56C39.8585 60.56 39.8757 60.56 39.9101 60.56C39.9101 60.56 39.9187 60.56 39.9359 60.56C39.9531 60.56 39.9788 60.5771 40.0132 60.6113C40.0132 60.6113 40.0218 60.6113 40.039 60.6113C40.0562 60.6113 40.082 60.6113 40.1164 60.6113C40.1507 60.6113 40.1765 60.6113 40.1937 60.6113C40.2109 60.6113 40.2195 60.6113 40.2195 60.6113C40.2539 60.5771 40.2797 60.56 40.2969 60.56C40.314 60.56 40.3226 60.56 40.3226 60.56C40.357 60.56 40.3742 60.56 40.3742 60.56C40.3742 60.56 40.3828 60.5514 40.4 60.5343C40.4172 60.5172 40.443 60.5087 40.4774 60.5087C40.4774 60.5087 40.4859 60.5001 40.5031 60.483C40.5203 60.4659 40.5289 60.4573 40.5289 60.4573C40.5289 60.4573 40.5461 60.4402 40.5805 60.406C40.5805 60.406 40.5977 60.3889 40.6321 60.3547L62.6005 38.5382C62.6005 38.504 62.6005 38.4869 62.6005 38.4869C62.6005 38.4869 62.6177 38.4869 62.6521 38.4869V38.4356C62.6521 38.4356 62.6521 38.427 62.6521 38.4099C62.6521 38.3928 62.6692 38.3842 62.7036 38.3842C62.7036 38.3842 62.7036 38.3671 62.7036 38.3329C62.7036 38.3329 62.7122 38.3243 62.7294 38.3072C62.7466 38.2901 62.7552 38.2816 62.7552 38.2816C62.7552 38.2816 62.7552 38.273 62.7552 38.2559C62.7552 38.2388 62.7552 38.2302 62.7552 38.2302C62.7552 38.196 62.7552 38.1789 62.7552 38.1789C62.7552 38.1789 62.7552 38.1618 62.7552 38.1276C62.7552 38.1276 62.7552 38.119 62.7552 38.1019C62.7552 38.0848 62.7552 38.0762 62.7552 38.0762C62.7552 38.0762 62.7552 38.0677 62.7552 38.0506C62.7552 38.0334 62.7552 38.0249 62.7552 38.0249C62.7552 37.9907 62.7552 37.965 62.7552 37.9479C62.7552 37.9308 62.7552 37.9222 62.7552 37.9222C62.7552 37.9222 62.7552 37.9137 62.7552 37.8966C62.7552 37.8794 62.7552 37.8709 62.7552 37.8709C62.7552 37.8367 62.7552 37.8196 62.7552 37.8196C62.7552 37.8196 62.7552 37.8024 62.7552 37.7682C62.7552 37.7682 62.7552 37.7597 62.7552 37.7426C62.7552 37.7254 62.7552 37.7169 62.7552 37.7169C62.7208 37.7169 62.7036 37.7083 62.7036 37.6912C62.7036 37.6741 62.7036 37.6656 62.7036 37.6656C62.7036 37.6313 62.7036 37.6142 62.7036 37.6142C62.7036 37.6142 62.6864 37.6142 62.6521 37.6142C62.6521 37.58 62.6521 37.5629 62.6521 37.5629C62.6177 37.5287 62.6005 37.5116 62.6005 37.5116L53.1118 28.0663C53.043 27.9979 52.9657 27.9465 52.8797 27.9123C52.7938 27.8781 52.6992 27.861 52.5961 27.861H27.6366C27.6366 27.861 27.6281 27.861 27.6109 27.861C27.5937 27.861 27.5851 27.861 27.5851 27.861C27.5851 27.861 27.5679 27.861 27.5335 27.861C27.4991 27.861 27.4819 27.861 27.4819 27.861C27.4819 27.861 27.4733 27.861 27.4562 27.861C27.439 27.861 27.4304 27.861 27.4304 27.861C27.396 27.861 27.3788 27.8695 27.3788 27.8867C27.3788 27.9038 27.3788 27.9123 27.3788 27.9123C27.3788 27.9123 27.3702 27.9123 27.353 27.9123C27.3358 27.9123 27.3272 27.9123 27.3272 27.9123C27.2929 27.9123 27.2757 27.9123 27.2757 27.9123C27.2757 27.9123 27.2757 27.9294 27.2757 27.9637C27.2757 27.9637 27.2585 27.9637 27.2241 27.9637L27.1725 28.015C27.1725 28.015 27.1639 28.0235 27.1467 28.0407C27.1296 28.0578 27.121 28.0663 27.121 28.0663L17.6322 37.5116C17.6322 37.5116 17.6322 37.5201 17.6322 37.5372C17.6322 37.5543 17.6151 37.5629 17.5807 37.5629C17.5807 37.5629 17.5807 37.5714 17.5807 37.5886C17.5807 37.6057 17.5807 37.6142 17.5807 37.6142C17.5807 37.6142 17.5635 37.6142 17.5291 37.6142C17.5291 37.6142 17.5291 37.6228 17.5291 37.6399C17.5291 37.657 17.5291 37.6656 17.5291 37.6656C17.5291 37.6998 17.5205 37.7169 17.5033 37.7169C17.4861 37.7169 17.4775 37.7169 17.4775 37.7169ZM27.5851 29.6576L33.2577 37.3062H19.9013L27.5851 29.6576ZM44.3966 38.7435L40.1164 56.8127L35.6299 38.7435H44.3966ZM35.9393 37.3062L40.1164 30.0683L44.0872 37.3062H35.9393ZM45.8921 38.7435H60.3314L41.4056 57.5827L45.8921 38.7435ZM41.354 29.2983H50.8943L45.3764 36.6902L41.354 29.2983ZM34.5985 36.6902L29.0806 29.2983H38.8787L34.5985 36.6902ZM34.1344 38.7435L38.7756 57.5314L19.9013 38.7435H34.1344ZM60.3314 37.3062H46.7172L52.5445 29.555L60.3314 37.3062ZM52.9055 19.5964C52.768 19.4595 52.6047 19.3911 52.4156 19.3911C52.2265 19.3911 52.0632 19.4595 51.9257 19.5964L50.9459 20.5204L50.0176 19.5964C49.8801 19.4595 49.7082 19.3911 49.5019 19.3911C49.2957 19.3911 49.1238 19.4595 48.9862 19.5964C48.8487 19.7333 48.78 19.8958 48.78 20.0841C48.78 20.2723 48.8487 20.4348 48.9862 20.5717L49.9661 21.5471L48.9862 22.471C48.8487 22.6079 48.78 22.779 48.78 22.9844C48.78 23.1897 48.8487 23.3608 48.9862 23.4977C49.0894 23.5661 49.1839 23.6175 49.2699 23.6517C49.3558 23.6859 49.4332 23.703 49.5019 23.703C49.6051 23.703 49.6996 23.6859 49.7856 23.6517C49.8715 23.6175 49.9489 23.5661 50.0176 23.4977L50.9459 22.5224L51.8741 23.4977C51.9773 23.5661 52.0718 23.6175 52.1577 23.6517C52.2437 23.6859 52.3211 23.703 52.3898 23.703C52.4929 23.703 52.5875 23.6859 52.6734 23.6517C52.7594 23.6175 52.8367 23.5661 52.9055 23.4977C53.043 23.3608 53.1118 23.1897 53.1118 22.9844C53.1118 22.779 53.043 22.6079 52.9055 22.471L51.9773 21.5471L52.9055 20.5717C53.0774 20.4348 53.1633 20.2723 53.1633 20.0841C53.1633 19.8958 53.0774 19.7333 52.9055 19.5964ZM31.7622 19.5964C31.6247 19.4595 31.4528 19.3911 31.2465 19.3911C31.0402 19.3911 30.8683 19.4595 30.7308 19.5964L29.8026 20.5204L28.8743 19.5964C28.7368 19.4595 28.5649 19.3911 28.3586 19.3911C28.1523 19.3911 27.9804 19.4595 27.8429 19.5964C27.7054 19.7333 27.6366 19.8958 27.6366 20.0841C27.6366 20.2723 27.7054 20.4348 27.8429 20.5717L28.7712 21.5471L27.8429 22.471C27.7054 22.6079 27.6366 22.779 27.6366 22.9844C27.6366 23.1897 27.7054 23.3608 27.8429 23.4977C27.9117 23.5661 27.989 23.6175 28.075 23.6517C28.1609 23.6859 28.2555 23.703 28.3586 23.703C28.4274 23.703 28.5133 23.6859 28.6165 23.6517C28.7196 23.6175 28.8055 23.5661 28.8743 23.4977L29.8026 22.5224L30.7308 23.4977C30.7996 23.5661 30.8769 23.6175 30.9629 23.6517C31.0488 23.6859 31.1433 23.703 31.2465 23.703C31.3152 23.703 31.4012 23.6859 31.5043 23.6517C31.6075 23.6175 31.6934 23.5661 31.7622 23.4977C31.8997 23.3608 31.9685 23.1897 31.9685 22.9844C31.9685 22.779 31.8997 22.6079 31.7622 22.471L30.7824 21.5471L31.7622 20.5717C31.8997 20.4348 31.9685 20.2723 31.9685 20.0841C31.9685 19.8958 31.8997 19.7333 31.7622 19.5964ZM60.6409 26.783V25.4997C60.6409 25.2943 60.5721 25.1232 60.4346 24.9864C60.2971 24.8495 60.1252 24.781 59.9189 24.781C59.7126 24.781 59.5407 24.8495 59.4032 24.9864C59.2657 25.1232 59.1969 25.2943 59.1969 25.4997V26.783H57.8561C57.6842 26.783 57.5209 26.86 57.3662 27.014C57.2115 27.168 57.1342 27.3306 57.1342 27.5017C57.1342 27.707 57.2115 27.8781 57.3662 28.015C57.5209 28.1519 57.6842 28.2203 57.8561 28.2203H59.1969V29.555C59.1969 29.7603 59.2657 29.9314 59.4032 30.0683C59.5407 30.2052 59.7126 30.2736 59.9189 30.2736C60.1252 30.2736 60.2971 30.2052 60.4346 30.0683C60.5721 29.9314 60.6409 29.7603 60.6409 29.555V28.2203H61.9817C62.1879 28.2203 62.3598 28.1519 62.4974 28.015C62.6349 27.8781 62.7036 27.707 62.7036 27.5017C62.7036 27.3306 62.6349 27.168 62.4974 27.014C62.3598 26.86 62.1879 26.783 61.9817 26.783H60.6409ZM18.2511 28.2203H19.5919V29.555C19.5919 29.7603 19.6606 29.9314 19.7981 30.0683C19.9357 30.2052 20.1076 30.2736 20.3138 30.2736C20.5201 30.2736 20.692 30.2052 20.8295 30.0683C20.967 29.9314 21.0358 29.7603 21.0358 29.555V28.2203H22.3766C22.5485 28.2203 22.7118 28.1519 22.8665 28.015C23.0212 27.8781 23.0986 27.707 23.0986 27.5017C23.0986 27.3306 23.0212 27.168 22.8665 27.014C22.7118 26.86 22.5485 26.783 22.3766 26.783H21.0358V25.4997C21.0358 25.2943 20.967 25.1232 20.8295 24.9864C20.692 24.8495 20.5201 24.781 20.3138 24.781C20.1076 24.781 19.9357 24.8495 19.7981 24.9864C19.6606 25.1232 19.5919 25.2943 19.5919 25.4997V26.783H18.2511C18.0448 26.783 17.8729 26.86 17.7354 27.014C17.5979 27.168 17.5291 27.3306 17.5291 27.5017C17.5291 27.707 17.5979 27.8781 17.7354 28.015C17.8729 28.1519 18.0448 28.2203 18.2511 28.2203Z" fill="#30373E"/>
</svg>
