<svg width="81" height="80" viewBox="0 0 81 80" fill="none" xmlns="http://www.w3.org/2000/svg">
<g clip-path="url(#clip0_884_24310)">
<path d="M79.4038 42.3218L70.4155 32.2576C69.9744 31.7632 69.341 31.4805 68.6776 31.4805H60.424V25.8016C60.424 23.1207 58.5715 20.9395 56.2946 20.9395H28.7075C26.4307 20.9395 24.5781 23.1207 24.5781 25.8016V52.3473C24.5781 53.8911 25.6764 55.1468 27.0253 55.1468H33.4448C33.9414 57.3377 35.9095 58.9798 38.2588 58.9798C40.608 58.9798 42.5752 57.3377 43.0727 55.1468H58.6597H60.424H67.0773C67.574 57.3377 69.5421 58.9798 71.8913 58.9798C74.2405 58.9798 76.2086 57.3377 76.7053 55.1468H77.666C78.9478 55.1468 79.9914 54.108 79.9914 52.8321V43.8594C79.9914 43.2939 79.7832 42.7477 79.4038 42.3218ZM77.1446 42.4351H66.4228C66.1978 42.4351 66.0143 42.2533 66.0143 42.0294V37.2524C66.0143 37.0285 66.1978 36.8458 66.4228 36.8458H72.1524L77.1446 42.4351ZM38.2588 57.2236C36.5085 57.2236 35.0847 55.8063 35.0847 54.0641C35.0847 52.3219 36.5085 50.9037 38.2588 50.9037C40.009 50.9037 41.4328 52.321 41.4328 54.0641C41.4328 55.8063 40.009 57.2236 38.2588 57.2236ZM58.6588 53.3905H43.1451C42.8134 50.9985 40.7518 49.1483 38.2588 49.1483C35.7658 49.1483 33.7041 50.9985 33.3724 53.3905H27.0253C26.7024 53.3905 26.3425 52.9629 26.3425 52.3473V25.8016C26.3425 24.0893 27.4037 22.6957 28.7075 22.6957H56.2946C57.5994 22.6957 58.6597 24.0893 58.6597 25.8016V31.4805L58.6588 53.3905ZM71.8904 57.2236C70.1411 57.2236 68.7164 55.8063 68.7164 54.0641C68.7164 52.3219 70.1402 50.9037 71.8904 50.9037C73.6407 50.9037 75.0654 52.321 75.0654 54.0641C75.0654 55.8063 73.6415 57.2236 71.8904 57.2236ZM77.666 53.3905H76.7776C76.4459 50.9985 74.3834 49.1483 71.8904 49.1483C69.3974 49.1483 67.3358 50.9985 67.0041 53.3905H60.4232V33.2367H68.6767C68.8373 33.2367 68.989 33.3052 69.0966 33.4246L70.584 35.0896H66.4228C65.2248 35.0896 64.25 36.0599 64.25 37.2524V42.0294C64.25 43.221 65.2239 44.1913 66.4228 44.1913H78.227V52.8321C78.227 53.1403 77.9756 53.3905 77.666 53.3905Z" fill="#30373E"/>
<path d="M19.3029 46.9227H8.19467C7.70771 46.9227 7.3125 46.531 7.3125 46.0463C7.3125 45.5617 7.70771 45.1699 8.19467 45.1699H19.3029C19.7899 45.1699 20.1851 45.5617 20.1851 46.0463C20.1851 46.531 19.7899 46.9227 19.3029 46.9227Z" fill="#30373E"/>
<path d="M19.3063 40.8583H4.67123C4.18427 40.8583 3.78906 40.4656 3.78906 39.9819C3.78906 39.4981 4.18427 39.1055 4.67123 39.1055H19.3063C19.7933 39.1055 20.1885 39.4981 20.1885 39.9819C20.1885 40.4656 19.7933 40.8583 19.3063 40.8583Z" fill="#30373E"/>
<path d="M19.3018 34.7919H1.47592C0.98896 34.7919 0.59375 34.3992 0.59375 33.9155C0.59375 33.4317 0.98896 33.0391 1.47592 33.0391H19.3018C19.7888 33.0391 20.184 33.4317 20.184 33.9155C20.184 34.3992 19.7888 34.7919 19.3018 34.7919Z" fill="#30373E"/>
<path d="M42.4203 45.5471L41.9907 45.3091C40.0517 44.2326 37.0285 41.7001 35.7705 40.0968C33.0579 36.6406 32.5242 32.5197 34.5011 30.2964C35.4582 29.2199 36.8 28.599 38.2812 28.5481C39.7332 28.4954 41.1773 29.0065 42.4212 29.9926C43.665 29.0065 45.1047 28.4849 46.5594 28.5481C48.0406 28.599 49.3823 29.2199 50.3404 30.2955C52.3164 32.5188 51.7827 36.6406 49.0709 40.0959C47.8121 41.6993 44.7889 44.2317 42.8508 45.3082L42.4203 45.5471ZM38.4752 30.3008C38.4302 30.3008 38.3861 30.3017 38.342 30.3025C37.3496 30.3368 36.4551 30.7477 35.8226 31.459C34.4323 33.0229 35.0074 36.2709 37.1617 39.0141C38.1974 40.3347 40.6718 42.4404 42.4212 43.5213C44.1696 42.4404 46.6441 40.3347 47.6806 39.0141C49.8331 36.27 50.41 33.022 49.0198 31.459C48.3864 30.7469 47.4918 30.3368 46.4994 30.3025C45.3102 30.2709 44.0629 30.789 43.0404 31.7891L42.422 32.3941L41.8036 31.7891C40.8174 30.8259 39.6406 30.3008 38.4752 30.3008Z" fill="#30373E"/>
</g>
<defs>
<clipPath id="clip0_884_24310">
<rect width="80.368" height="80" fill="white" transform="translate(0.148438)"/>
</clipPath>
</defs>
</svg>
